<svg xmlns="http://www.w3.org/2000/svg" width="44" height="44" viewBox="0 0 44 44"><g transform="translate(-37 -29)"><g transform="translate(37 29)" fill="#00d267" stroke="#000" stroke-width="1"><circle cx="22" cy="22" r="22" stroke="none"/><circle cx="22" cy="22" r="21.5" fill="none"/></g><path d="M1233.385,714.815a1.653,1.653,0,0,0,1.651,1.652h6.766v2.845h-6.766a1.654,1.654,0,0,0,0,3.308h6.766v2.842h-6.766a1.652,1.652,0,0,0,0,3.3h9.564v-.01c2.242-.1,3.661-1.8,4.8-3.623a4.834,4.834,0,0,1,4.34-2.217h13.438l.288-4.118s-.062-.109-.288-.109h-13.7a4.629,4.629,0,0,1-4.047-1.793c-1.222-1.814-2.554-3.626-4.834-3.723v-.011h-9.564a1.651,1.651,0,0,0-1.651,1.652" transform="translate(-1186.863 -669.162)"/></g></svg>