<svg xmlns="http://www.w3.org/2000/svg" width="44" height="44" viewBox="0 0 44 44"><g transform="translate(-37 -29)"><g transform="translate(37 29)" fill="#00c5bf"><path d="M 22 43.5 C 19.09729957580566 43.5 16.28169059753418 42.93161010742188 13.63138961791992 41.81063079833984 C 11.07124042510986 40.72777938842773 8.771889686584473 39.1774787902832 6.797210216522217 37.20280075073242 C 4.822519779205322 35.22811126708984 3.272219896316528 32.92876052856445 2.189369916915894 30.36861991882324 C 1.068390011787415 27.71830940246582 0.5 24.90270042419434 0.5 22 C 0.5 19.09729957580566 1.068390011787415 16.28169059753418 2.189369916915894 13.63138961791992 C 3.272219896316528 11.07124042510986 4.822519779205322 8.771889686584473 6.797210216522217 6.797210216522217 C 8.771889686584473 4.822519779205322 11.07124042510986 3.272219896316528 13.63138961791992 2.189369916915894 C 16.28169059753418 1.068390011787415 19.09729957580566 0.5 22 0.5 C 24.90270042419434 0.5 27.71830940246582 1.068390011787415 30.36861991882324 2.189369916915894 C 32.92876052856445 3.272219896316528 35.22811126708984 4.822519779205322 37.20280075073242 6.797210216522217 C 39.1774787902832 8.771889686584473 40.72777938842773 11.07124042510986 41.81063079833984 13.63138961791992 C 42.93161010742188 16.28169059753418 43.5 19.09729957580566 43.5 22 C 43.5 24.90270042419434 42.93161010742188 27.71830940246582 41.81063079833984 30.36861991882324 C 40.72777938842773 32.92876052856445 39.1774787902832 35.22811126708984 37.20280075073242 37.20280075073242 C 35.22811126708984 39.1774787902832 32.92876052856445 40.72777938842773 30.36861991882324 41.81063079833984 C 27.71830940246582 42.93161010742188 24.90270042419434 43.5 22 43.5 Z" stroke="none"/><path d="M 22 1 C 19.16457939147949 1 16.41449928283691 1.555099487304688 13.8261604309082 2.649871826171875 C 11.32561111450195 3.707511901855469 9.079681396484375 5.221828460693359 7.150760650634766 7.150760650634766 C 5.221828460693359 9.079681396484375 3.707511901855469 11.32561111450195 2.649871826171875 13.8261604309082 C 1.555099487304688 16.41449928283691 1 19.16457939147949 1 22 C 1 24.83542060852051 1.555099487304688 27.58550071716309 2.649871826171875 30.1738395690918 C 3.707511901855469 32.67438125610352 5.221828460693359 34.92031097412109 7.150760650634766 36.84923934936523 C 9.079681396484375 38.77817153930664 11.32561111450195 40.29248046875 13.8261604309082 41.35012817382812 C 16.41449928283691 42.44490051269531 19.16457939147949 43 22 43 C 24.83542060852051 43 27.58550071716309 42.44490051269531 30.1738395690918 41.35012817382812 C 32.67438125610352 40.29248046875 34.92031097412109 38.77817153930664 36.84923934936523 36.84923934936523 C 38.77817153930664 34.92031097412109 40.29248046875 32.67438125610352 41.35012817382812 30.1738395690918 C 42.44490051269531 27.58550071716309 43 24.83542060852051 43 22 C 43 19.16457939147949 42.44490051269531 16.41449928283691 41.35012817382812 13.8261604309082 C 40.29248046875 11.32561111450195 38.77817153930664 9.079681396484375 36.84923934936523 7.150760650634766 C 34.92031097412109 5.221828460693359 32.67438125610352 3.707511901855469 30.1738395690918 2.649871826171875 C 27.58550071716309 1.555099487304688 24.83542060852051 1 22 1 M 22 0 C 34.15026092529297 0 44 9.8497314453125 44 22 C 44 34.15026092529297 34.15026092529297 44 22 44 C 9.8497314453125 44 0 34.15026092529297 0 22 C 0 9.8497314453125 9.8497314453125 0 22 0 Z" stroke="none" fill="#000"/></g><path d="M955.579,533.909a1.481,1.481,0,0,0-.238-.109l-10.7-4.9,10.7-4.9a1.451,1.451,0,1,0-1.214-2.623,1.422,1.422,0,0,0-.214.152l-9.594,6.818,1.108-11.718a1.428,1.428,0,0,0,.025-.261,1.452,1.452,0,0,0-2.9,0,1.428,1.428,0,0,0,.025.261l1.107,11.718-9.594-6.818a1.357,1.357,0,0,0-.213-.152,1.452,1.452,0,1,0-1.452,2.514,1.468,1.468,0,0,0,.238.109l10.7,4.9-10.7,4.9a1.506,1.506,0,0,0-.238.109,1.452,1.452,0,0,0,1.452,2.515,1.368,1.368,0,0,0,.213-.152l9.594-6.817-1.107,11.717a1.427,1.427,0,0,0-.025.261,1.452,1.452,0,0,0,2.9,0,1.427,1.427,0,0,0-.025-.261l-1.108-11.717,9.594,6.817a1.434,1.434,0,0,0,.214.152,1.452,1.452,0,1,0,1.452-2.515" transform="translate(-885.398 -477.9)"/></g></svg>